<?xml version="1.0" encoding="UTF-8" standalone="no"?>
<!-- Created with Inkscape (http://www.inkscape.org/) -->

<svg
   width="200mm"
   height="200mm"
   viewBox="0 0 200 200"
   version="1.1"
   id="svg1"
   xml:space="preserve"
   inkscape:version="1.4.4 (unknown)"
   sodipodi:docname="logo.svg"
   inkscape:export-filename="logo.png"
   inkscape:export-xdpi="96"
   inkscape:export-ydpi="96"
   xmlns:inkscape="http://www.inkscape.org/namespaces/inkscape"
   xmlns:sodipodi="http://sodipodi.sourceforge.net/DTD/sodipodi-0.dtd"
   xmlns="http://www.w3.org/2000/svg"
   xmlns:svg="http://www.w3.org/2000/svg"><sodipodi:namedview
     id="namedview1"
     pagecolor="#ffffff"
     bordercolor="#000000"
     borderopacity="0.25"
     inkscape:showpageshadow="2"
     inkscape:pageopacity="0.0"
     inkscape:pagecheckerboard="0"
     inkscape:deskcolor="#d1d1d1"
     inkscape:document-units="mm"
     inkscape:zoom="0.72890075"
     inkscape:cx="-0.68596445"
     inkscape:cy="238.02966"
     inkscape:window-width="1920"
     inkscape:window-height="1106"
     inkscape:window-x="0"
     inkscape:window-y="0"
     inkscape:window-maximized="1"
     inkscape:current-layer="layer1" /><defs
     id="defs1" /><g
     inkscape:label="Layer 1"
     inkscape:groupmode="layer"
     id="layer1"><path
       id="path1"
       style="fill:#d40000;stroke-width:1.39342"
       d="m 138.30133,8.6669804 c -3.72077,-0.034021 -7.43274,0.2016274 -9.85293,0.7187696 -9.24736,1.975947 -17.63409,6.121969 -25.41849,12.565866 l -3.301337,2.732807 -1.409952,-1.301936 C 94.014487,19.409053 86.715309,14.807542 81.043617,12.49202 69.447034,7.7576027 57.444477,7.4287846 45.815588,11.525756 24.977194,18.867325 10.18134,38.682313 8.6367073,61.31795 c -0.7417802,10.8703 1.5651287,21.61793 6.7804067,31.587316 0,0 0.230508,0.989543 1.889975,3.613118 1.659468,2.623558 8.73756,11.571506 8.73756,11.571506 l 35.361677,37.18038 c 22.343449,23.4927 35.84884,37.42138 36.685582,37.83469 v -7.4e-4 c 1.69515,0.83728 2.846412,0.83956 4.247372,0.0103 0.61642,-0.36516 17.05818,-17.43592 36.53722,-37.93547 l 35.41628,-37.27246 c 0,0 5.78941,-7.42792 8.3674,-11.387689 0.47169,-0.724525 1.2945,-2.256345 1.2945,-2.256345 2.98277,-5.19976 5.61957,-12.565645 6.87136,-19.193359 0.96392,-5.103469 0.87901,-15.367803 -0.17003,-20.544948 C 188.35301,43.15861 183.63867,34.112123 175.56069,25.55775 167.48652,17.007418 158.96988,12.028843 148.20745,9.5669837 145.75182,9.0052702 142.02212,8.701426 138.30133,8.6674116 Z"
       sodipodi:nodetypes="sssccsssccccccsccacssssss" /><path
       style="fill:#f9f9f9;stroke-width:0.607669"
       d="m 82.677678,60.886153 c 0.74176,-0.04646 1.483387,-0.07831 2.224928,-0.09832 m 0,0 c 3.958954,-0.106852 7.915452,0.123627 11.876573,0.268861 V 49.803592 L 95.6649,49.158725 c -2.27232,-1.315446 -3.644061,-3.589957 -3.644061,-6.04245 0,-2.547767 1.795726,-5.206785 4.271292,-6.324694 1.565856,-0.707274 3.031853,-0.951408 4.639059,-0.773009 3.82638,0.424364 6.66331,3.008994 7.13329,6.499017 0.32992,2.45008 -1.32765,5.401908 -3.76669,6.707787 l -0.84556,0.452655 c 0.0986,4.006052 -0.36247,8.565055 -0.18488,12.568215 27.1875,9.273268 21.14537,31.054153 -0.14441,36.538691 -0.14341,7.457433 -0.226,14.386193 -0.226,21.844903 18.14216,7.97087 18.39474,20.91898 -0.11708,29.801 -0.21487,5.53778 -0.21894,11.07976 -0.21451,16.62085 4.33484,2.63142 6.13186,6.04544 6.64895,9.13614 -3.12017,3.19141 -0.19097,0.18009 -3.24929,3.32347 -0.7673,-1.29511 -1.36031,-3.1177 -3.39365,-5.17152 -0.098,3.75114 -0.15063,7.53087 -0.23208,8.77474 -0.058,0.0339 -0.087,0.0512 -0.13846,0.0797 -0.10482,0.0581 -0.22362,0.12035 -0.31079,0.16136 -0.57593,0.27097 -1.03086,0.40607 -1.6168,0.37821 -0.19585,-0.009 -0.446498,-0.0297 -0.694403,-0.082 -0.467856,-0.0987 -0.959469,-0.27956 -1.348524,-0.48046 -0.05278,-0.0273 -0.175155,-0.0904 -0.219442,-0.11863 -0.08261,-0.0527 -0.224936,-0.18398 -0.224936,-0.18398 L 97.575509,172.8 C 77.261264,166.81814 80.508533,149.70724 97.43846,142.49426 97.283105,136.90584 97.43086,131.30714 97.20278,125.72105 69.15759,115.72766 79.584373,97.958005 96.944777,91.073191 96.440608,83.771608 97.689465,77.895019 96.776806,70.675495 95.889221,70.185248 86.128236,69.215072 82.19108,71.53878 79.08425,74.036577 71.356887,74.457992 69.438387,74.200461 l -0.7121,-0.09569 -0.552838,0.864872 c -0.475454,0.743886 -0.548346,0.994926 -0.521137,1.794395 0.05242,1.53362 -0.456899,3.439432 -0.918981,3.439432 -0.219172,0 -0.294559,-0.364454 -0.511485,-2.471881 -0.05825,-0.564987 -0.127308,-1.026795 -0.153602,-1.026795 -0.02662,0 -0.574723,0.213846 -1.218517,0.475953 -1.823045,0.74139 -2.416938,0.904979 -2.554882,0.704779 -0.165502,-0.239642 1.273526,-1.369449 2.682699,-2.106179 0.847397,-0.442671 1.328161,-0.823767 1.753665,-1.389503 l 0.586206,-0.778834 -0.492846,-0.50258 c -0.494509,-0.504244 -0.848554,-1.340991 -0.850318,-2.009906 -0.0018,-0.662342 0.527959,-2.193049 1.135142,-3.279256 2.643233,-4.728501 5.555061,-9.243987 15.568285,-6.933115 m 14.672069,91.564277 c -8.871113,2.90221 -6.647864,9.84408 0.149344,12.84514 0.115449,0.051 -0.04589,-12.73839 -0.149344,-12.84514 z m 5.593273,-24.44181 c -0.19612,0.17558 -0.25542,13.34388 -0.0791,13.25927 9.85643,-4.72977 5.23307,-11.03838 0.0791,-13.25927 z m -5.890973,-27.77711 c -5.040866,0.77854 -16.988623,12.40308 -0.01758,18.12324 -0.112058,-5.85952 0.01758,-18.12324 0.01758,-18.12324 z M 103.3448,71.975549 c -0.13456,0.13563 -0.29706,17.493963 -0.16368,17.491883 11.16267,-2.402503 13.45889,-12.949651 0.16368,-17.491883 z"
       id="path2"
       sodipodi:nodetypes="ccccccsccscccccccccccsssssscccccccccccscsccccccccccsccsccccccc" /></g></svg>
